<svg width="28" height="27" viewBox="0 0 28 27" fill="none" xmlns="http://www.w3.org/2000/svg">
<path d="M27.383 0H27.1265H1.21394H0.957458V0.266705V26.7333V27H1.21394H27.1265H27.383V26.7333V0.266705V0Z" fill="#28A745"/>
<path d="M13.0213 0V7.0897C10.6669 7.9202 8.30448 8.61702 5.92609 8.61702C4.27921 8.61702 2.62433 8.28482 0.957458 7.43V0H13.0213Z" fill="#00529E"/>
<path d="M0.957458 11.421C9.91214 15.7632 18.4283 5.36048 27.383 9.69894V11.5541C18.4283 7.2156 9.91214 17.6183 0.957458 13.2798V11.421Z" fill="#FFDD00"/>
<path d="M11.517 6.83727C11.0892 6.68498 10.8734 6.60689 10.4456 6.43118C10.0178 6.77479 9.802 6.9427 9.37422 7.25898C9.53609 6.81775 9.62087 6.59518 9.78273 6.15003C9.35496 5.9626 9.13914 5.86108 8.71136 5.64241C9.24319 5.59165 9.50525 5.5526 10.0371 5.45889C10.2028 5.00984 10.2837 4.78727 10.4456 4.33432C10.6113 4.72089 10.6922 4.91222 10.8541 5.29489C11.3859 5.17775 11.648 5.11137 12.1798 4.96299C11.752 5.34175 11.5362 5.52527 11.1085 5.88451C11.2703 6.26718 11.3512 6.45851 11.517 6.83727Z" fill="#F2F2F2"/>
<path d="M11.517 3.52202C11.0892 3.36974 10.8734 3.29164 10.4456 3.11593C10.0178 3.45955 9.802 3.62745 9.37422 3.94374C9.53609 3.5025 9.62087 3.27993 9.78273 2.83479C9.35496 2.64736 9.13914 2.54583 8.71136 2.32717C9.24319 2.27641 9.50525 2.23736 10.0371 2.14364C10.2028 1.6946 10.2837 1.47203 10.4456 1.01907C10.6113 1.40564 10.6922 1.59698 10.8541 1.97964C11.3859 1.8625 11.648 1.79612 12.1798 1.64774C11.7482 2.03431 11.5362 2.21783 11.1085 2.57707C11.2703 2.95583 11.3512 3.14326 11.517 3.52202Z" fill="#F2F2F2"/>
<path d="M4.67644 3.81888C4.24867 3.46745 4.03285 3.28003 3.60508 2.88174C3.1773 3.00279 2.96149 3.05355 2.53371 3.12384C2.69557 2.77631 2.78036 2.6006 2.94222 2.24526C2.51444 1.81965 2.29863 1.59707 1.87085 1.12069C2.40268 1.39012 2.66474 1.50336 3.19657 1.6986C3.36229 1.33936 3.44322 1.15974 3.60508 0.792694C3.76694 1.26517 3.85172 1.49946 4.01358 1.96412C4.54541 2.1125 4.81133 2.16717 5.3393 2.25307C4.91153 2.44441 4.69571 2.53031 4.26794 2.67479C4.43365 3.13555 4.51458 3.36593 4.67644 3.81888Z" fill="#F2F2F2"/>
<path d="M4.67644 7.13398C4.24867 6.78255 4.03285 6.59512 3.60508 6.19683C3.1773 6.31788 2.96149 6.36474 2.53371 6.43893C2.69557 6.0914 2.78036 5.91569 2.94222 5.56036C2.51444 5.13474 2.29863 4.90826 1.87085 4.43188C2.40268 4.70131 2.66474 4.81455 3.19657 5.00979C3.36229 4.65055 3.44322 4.47093 3.60508 4.10388C3.76694 4.57636 3.85172 4.81064 4.01358 5.27531C4.54541 5.42369 4.80748 5.48226 5.3393 5.56426C4.91153 5.75559 4.69571 5.8415 4.26794 5.98988C4.43365 6.45064 4.51458 6.67712 4.67644 7.13398Z" fill="#F2F2F2"/>
<path d="M7.82888 5.43541C7.50901 5.25579 7.34715 5.15817 7.02342 4.95903C6.70355 5.14646 6.54169 5.23627 6.21797 5.40417C6.34129 5.0996 6.40295 4.94731 6.52628 4.64274C6.20256 4.42798 6.04455 4.31865 5.72083 4.08436C6.11777 4.13512 6.31817 4.15074 6.71512 4.16636C6.83844 3.85789 6.9001 3.70169 7.02342 3.39322C7.14675 3.7095 7.20841 3.86569 7.33173 4.18198C7.72868 4.18198 7.92908 4.17417 8.32602 4.14293C8.00615 4.3616 7.84429 4.46312 7.52057 4.66617C7.64389 4.97074 7.70555 5.12693 7.82888 5.43541Z" fill="#F2F2F2"/>
<path d="M0.957458 7.40072C9.91214 11.7444 18.4283 1.33802 27.383 5.67802V7.5338C18.4283 3.1938 9.91214 13.6002 0.957458 9.25649V7.40072Z" fill="#FFDD00"/>
<path d="M13.0213 3.22086V5.17021C17.7377 3.38783 22.5212 1.12006 27.383 3.65577V1.70642C22.5249 -0.829286 17.7377 1.43848 13.0213 3.22086Z" fill="#FFDD00"/>
<path d="M7.53856 20.3988V23.6709C7.09342 23.6709 6.7028 23.5881 6.37122 23.4178C5.95788 23.6065 5.51729 23.7031 5.04491 23.7031C4.30908 23.7031 3.70497 23.4546 3.24167 22.9576C2.77383 22.4605 2.54218 21.8024 2.54218 20.9786C2.54218 20.1272 2.79654 19.4461 3.30526 18.9399C3.81398 18.4336 4.49531 18.1805 5.35377 18.1805C5.66264 18.1805 5.98968 18.2127 6.32126 18.2772C6.65738 18.3416 6.93445 18.4244 7.16156 18.5303V19.621C7.00258 19.5428 6.7891 19.4783 6.51657 19.4323C6.24404 19.3863 6.00785 19.3587 5.80799 19.3587C5.22659 19.3587 4.77692 19.5013 4.46351 19.7867C4.1501 20.072 3.99567 20.4678 3.99567 20.9694C3.99567 21.4435 4.11831 21.8208 4.36812 22.1016C4.61794 22.3823 4.95861 22.525 5.3992 22.525C5.63993 22.525 5.88521 22.4881 6.13957 22.4099V21.5723H5.26293V20.4034H7.53856V20.3988Z" fill="#F2F2F2"/>
<path d="M10.818 23.6985C9.94587 23.6985 9.24638 23.4454 8.71495 22.9392C8.18352 22.4329 7.91553 21.7656 7.91553 20.9372C7.91553 20.1088 8.18352 19.4415 8.71495 18.9353C9.24638 18.4291 9.95042 18.1759 10.818 18.1759C11.6855 18.1759 12.3805 18.4291 12.9119 18.9353C13.4433 19.4415 13.7068 20.1088 13.7068 20.9372C13.7068 21.7656 13.4433 22.4329 12.9119 22.9392C12.3805 23.4454 11.6855 23.6985 10.818 23.6985ZM10.818 22.5204C11.2495 22.5204 11.5947 22.3731 11.8627 22.0832C12.1261 21.7932 12.2624 21.4113 12.2624 20.9326C12.2624 20.4586 12.1307 20.0766 11.8627 19.7821C11.5992 19.4922 11.2495 19.3449 10.818 19.3449C10.3819 19.3449 10.0322 19.4922 9.76419 19.7821C9.4962 20.072 9.36448 20.454 9.36448 20.9326C9.36448 21.4067 9.4962 21.7886 9.76419 22.0832C10.0322 22.3777 10.3819 22.5204 10.818 22.5204Z" fill="#F2F2F2"/>
<path d="M15.6236 18.2449V23.6248H14.22V18.2449H15.6236Z" fill="#F2F2F2"/>
<path d="M20.3792 23.6249L20.0703 22.9437H17.9037L17.5949 23.6249H16.0959C17.1906 21.3882 18.1445 19.5703 18.953 18.1759H19.0256C19.8659 19.644 20.8198 21.4618 21.8827 23.6249H20.3792ZM18.9893 20.5644C18.7213 21.0891 18.5169 21.4894 18.3807 21.7702H19.607C19.5344 21.6183 19.4299 21.4112 19.2891 21.1397C19.1483 20.8681 19.0438 20.6749 18.9893 20.5644Z" fill="#F2F2F2"/>
<path d="M24.8215 22.1475C24.8215 22.0785 24.8033 22.0187 24.7624 21.9681C24.7261 21.9174 24.6579 21.8714 24.5626 21.83C24.4672 21.7886 24.3809 21.7564 24.3127 21.7333C24.2401 21.7103 24.1265 21.6781 23.9766 21.6367L23.7541 21.5769C23.4588 21.4986 23.2181 21.425 23.0409 21.356C22.8638 21.2869 22.6912 21.1903 22.5277 21.066C22.3641 20.9418 22.2461 20.7899 22.1779 20.6058C22.1052 20.4217 22.0689 20.1962 22.0689 19.9293C22.0689 19.3678 22.2551 18.9352 22.6231 18.6269C22.9955 18.3231 23.5133 18.1713 24.1765 18.1713C24.8169 18.1713 25.3892 18.2817 25.8889 18.498V19.5657C25.3711 19.3954 24.9078 19.3126 24.499 19.3126C23.8267 19.3126 23.4861 19.4369 23.4861 19.6808C23.4861 19.7636 23.5224 19.8327 23.5996 19.8925C23.6768 19.9523 23.7677 19.9937 23.8676 20.0259C23.9675 20.0582 24.1129 20.0996 24.2946 20.1456C24.3354 20.1548 24.3672 20.164 24.39 20.1686L24.5898 20.2192C25.1122 20.3481 25.5164 20.5506 25.8026 20.8129C26.0887 21.0798 26.2341 21.4618 26.2341 21.9543C26.2341 22.4973 26.0524 22.9207 25.6845 23.2291C25.3166 23.5374 24.8124 23.6893 24.1674 23.6893C23.8494 23.6893 23.5224 23.6571 23.1727 23.588C22.8229 23.519 22.5322 23.4223 22.296 23.2981V22.2304C22.7866 22.4421 23.2908 22.5525 23.804 22.5525C24.4808 22.5571 24.8215 22.4191 24.8215 22.1475Z" fill="#F2F2F2"/>
<path d="M19.657 18.857L20.0976 18.1207H19.2618L19.657 18.857Z" fill="#F2F2F2"/>
</svg>
