<svg width="158" height="42" viewBox="0 0 158 42" fill="none" xmlns="http://www.w3.org/2000/svg">
<path d="M111.676 28.1717C111.407 28.2772 111.133 28.3736 110.856 28.4609C109.636 28.8465 108.413 29.0392 107.187 29.0392C105.826 29.0392 104.299 28.9157 102.606 28.6718C100.913 28.4278 98.9913 27.8163 96.8376 26.8374L99.5606 21.9607C101.082 22.5902 102.44 23.027 103.645 23.271C104.847 23.515 106.01 23.6385 107.127 23.6385C108.422 23.6385 109.422 23.3674 110.133 22.8252C110.844 22.283 111.263 21.6806 111.389 21.0179C111.558 20.2468 111.389 19.6022 110.871 19.0781C110.356 18.5539 109.672 18.063 108.82 17.6081C107.968 17.1533 107.037 16.6985 106.028 16.2436C105.019 15.7888 104.112 15.2406 103.311 14.593C102.51 13.9484 101.895 13.1592 101.467 12.2345C101.04 11.3097 100.973 10.147 101.269 8.74638C101.446 7.909 101.799 7.02644 102.335 6.0987C102.868 5.17397 103.597 4.33358 104.516 3.58054C105.437 2.83052 106.567 2.20098 107.904 1.69192C109.239 1.18588 110.799 0.932861 112.582 0.932861C113.769 0.932861 114.962 1.02021 116.152 1.19492C117.152 1.34251 118.296 1.62264 119.582 2.04434C119.299 2.23411 119.028 2.43592 118.772 2.64376C117.712 3.51126 116.877 4.48117 116.26 5.54748C116.073 5.86978 115.908 6.18906 115.76 6.50534C115.302 6.40293 114.895 6.32461 114.537 6.27943C113.742 6.174 112.889 6.1228 111.983 6.1228C110.968 6.1228 110.13 6.32461 109.465 6.72523C108.802 7.12885 108.404 7.69514 108.272 8.4301C108.103 9.16507 108.278 9.7916 108.79 10.3187C109.305 10.8428 109.989 11.3338 110.841 11.7887C111.694 12.2435 112.615 12.7134 113.603 13.2044C114.591 13.6923 115.486 14.2707 116.287 14.9333C117.088 15.599 117.709 16.3912 118.155 17.319C118.6 18.2437 118.676 19.3913 118.387 20.7528C118.302 21.1233 118.2 21.4848 118.079 21.8312C117.176 21.5902 116.194 21.2438 115.124 20.801C114.534 20.557 113.814 20.8311 113.48 21.4245L110.754 26.3012C110.585 26.6054 110.54 26.9548 110.63 27.2711C110.721 27.5874 110.941 27.8404 111.236 27.976C111.383 28.0422 111.528 28.1055 111.676 28.1717Z" fill="#F6B600"/>
<path d="M130.297 25.9458C129.959 26.256 129.598 26.5452 129.218 26.8102C128.194 27.5271 127.074 28.0753 125.854 28.4609C124.631 28.8465 123.411 29.0392 122.185 29.0392C120.823 29.0392 119.296 28.9157 117.603 28.6718C115.911 28.4278 113.989 27.8163 111.835 26.8374L114.558 21.9607C116.079 22.5902 117.438 23.027 118.64 23.271C119.844 23.515 121.004 23.6385 122.122 23.6385C123.414 23.6385 124.417 23.3674 125.128 22.8252C125.839 22.283 126.257 21.6806 126.384 21.0179C126.555 20.2468 126.381 19.6022 125.869 19.0781C125.357 18.5539 124.673 18.063 123.82 17.6081C122.968 17.1533 122.037 16.6985 121.025 16.2436C120.016 15.7888 119.109 15.2406 118.308 14.593C117.507 13.9484 116.893 13.1592 116.465 12.2345C116.037 11.3097 115.971 10.147 116.263 8.74638C116.441 7.909 116.796 7.02644 117.329 6.0987C117.862 5.17397 118.591 4.33358 119.513 3.58054C120.432 2.83052 121.561 2.20098 122.899 1.69192C124.236 1.18588 125.796 0.932861 127.58 0.932861C128.766 0.932861 129.956 1.02021 131.149 1.19492C132.339 1.36962 133.733 1.73711 135.327 2.29737L133.953 4.7342C133.279 5.37277 132.637 6.06858 132.029 6.83065C131.026 6.55052 130.194 6.36678 129.535 6.28244C128.739 6.17701 127.887 6.12581 126.977 6.12581C125.962 6.12581 125.125 6.32762 124.462 6.72824C123.799 7.13187 123.399 7.69815 123.266 8.43312C123.098 9.16808 123.272 9.79461 123.784 10.3217C124.299 10.8458 124.983 11.3368 125.836 11.7917C126.688 12.2465 127.61 12.7164 128.598 13.2074L128.685 13.2526C128.544 13.7465 128.414 14.2556 128.3 14.7797C127.784 17.2557 127.757 19.4576 128.2 21.3944C128.61 23.1686 129.312 24.6867 130.297 25.9458Z" fill="#F6B600"/>
<path d="M14.9945 28.8765C13.6902 29.0874 12.4131 29.1928 11.163 29.1928C8.7503 29.1928 6.7683 28.756 5.22006 27.8825C3.6688 27.009 2.47298 25.8824 1.62957 24.4998C0.786171 23.1203 0.274106 21.554 0.0903645 19.8069C-0.0903645 18.0599 0 16.2947 0.361458 14.5116C0.828341 12.3458 1.59644 10.406 2.66877 8.69208C3.74109 6.97816 5.02728 5.53534 6.52733 4.36663C8.02738 3.1949 9.67503 2.29427 11.4763 1.66473C13.2806 1.03519 15.124 0.721924 17.0126 0.721924C18.829 0.721924 20.4284 1.06531 21.811 1.75208C21.8291 1.83341 21.8532 1.91172 21.8893 1.98703L25.8955 10.9693C25.6063 12.5958 24.9496 14.3338 23.9225 16.1893H9.23827C9.86479 14.9664 10.6269 13.9453 11.5185 13.1229C12.4101 12.3006 13.3077 11.891 14.2204 11.891H18.8862C19.1663 11.0867 19.3019 10.3186 19.2958 9.58367C19.2898 8.84871 19.1422 8.20411 18.8591 7.64385C18.5729 7.08359 18.1572 6.63779 17.609 6.30645C17.0608 5.97512 16.3831 5.80945 15.5819 5.80945C14.8469 5.80945 14.0818 5.96909 13.2866 6.28235C12.4884 6.59562 11.7323 7.09564 11.0064 7.77638C10.2835 8.46014 9.62382 9.33366 9.02742 10.397C8.428 11.4633 7.97618 12.7494 7.67496 14.2495C7.03036 17.2918 7.22314 19.6412 8.25028 21.304C9.28044 22.9636 10.8949 23.795 13.0968 23.795C14.3198 23.795 15.5487 23.6444 16.7777 23.3492C18.0096 23.051 19.4585 22.554 21.1272 21.8552L21.1664 22.0841L14.9945 28.8765Z" fill="white"/>
<path d="M49.9565 24.0209C50.9596 24.0781 53.4084 23.8733 53.7277 23.8492C55.9417 23.6775 57.6496 22.8432 58.8544 21.2527C60.0563 19.6623 60.9207 17.6261 61.4479 15.1441C61.6919 13.9182 61.8003 12.7675 61.7702 11.6831C61.7401 10.5988 61.5774 9.64693 61.2822 8.82461C60.987 8.00229 60.5442 7.34866 59.9569 6.85768C59.3695 6.36971 58.6375 6.12271 57.764 6.12271C55.8061 6.12271 53.5169 7.34866 50.8963 9.79151L44.381 41.148L37.176 40.7835L43.9443 8.27339C44.134 7.29444 44.2816 6.25223 44.3961 5.1528C44.5075 4.05035 44.5467 2.88766 44.5106 1.66473L50.1975 1.40267C50.5921 1.6828 50.8903 2.06534 51.0951 2.55632C51.2969 3.04429 51.4656 3.55335 51.5921 4.07746L51.5018 5.12569L52.5349 4.07746C54.2187 2.78525 55.6585 1.89967 56.8513 1.42978C58.0472 0.956872 59.1707 0.721924 60.2189 0.721924C62.1075 0.721924 63.716 1.08941 65.0534 1.82437C66.0565 2.37559 66.8969 3.08044 67.5656 3.9389C67.5505 4.34554 67.5234 4.74315 67.4812 5.13171C67.3758 6.195 67.2312 7.19805 67.0505 8.14085L63.5654 24.9306C62.2612 26.1475 60.8515 27.1264 59.3333 27.8584C57.7851 28.6114 56.2579 28.9849 54.7549 28.9849C54.5169 28.9849 54.282 28.9819 54.05 28.9729C52.0108 28.9578 50.4294 28.5693 49.0137 28.0421L49.9565 24.0209Z" fill="white"/>
<path d="M80.5298 7.02341C79.8431 7.10173 79.1954 7.31559 78.5779 7.66801C77.7888 8.11983 77.0628 8.73732 76.4002 9.52048C75.7375 10.3067 75.1592 11.2464 74.6652 12.3429C74.1682 13.4423 73.7947 14.6351 73.5446 15.9213L70.9452 28.5121H64.0775L68.2704 8.34876C68.4601 7.37282 68.6077 6.33664 68.7192 5.24022C68.8306 4.14379 68.8517 2.98412 68.7794 1.7642L74.4121 1.50515C74.6712 1.74913 74.882 2.22505 75.0507 2.94195C75.2164 3.65583 75.2796 4.46609 75.2345 5.37275L75.0748 6.62581L75.864 5.37275C76.858 3.97813 77.9996 2.89978 79.2888 2.13469C80.578 1.3696 81.7829 0.987061 82.9004 0.987061C83.9125 0.987061 85.0149 1.1949 86.2017 1.61359L86.036 2.0865C85.3071 2.51121 84.6023 2.98412 83.9305 3.51124C82.6534 4.49622 81.5208 5.66794 80.5298 7.02341Z" fill="white"/>
<path d="M29.1395 15.0839L23.0339 1.40576H31.3715L33.8656 9.00843L33.9831 10.1109L34.6036 9.00843L40.3387 1.40576L43.2816 1.54432C43.2665 1.63167 43.2575 1.71903 43.2605 1.80638C43.2936 2.97509 43.2575 4.08356 43.1521 5.13179C43.0587 6.06255 42.9352 6.94511 42.7846 7.78249L36.4922 15.09L39.8658 21.8342L38.4742 28.5121H35.0283C34.1337 26.3102 33.1999 24.1264 32.233 21.9577C31.98 21.3854 31.721 20.8131 31.4649 20.2407L27.2148 25.3765L27.2088 25.3644L24.8563 28.5121H16.9373L27.4166 16.9786L27.4196 16.9846L29.1395 15.0839Z" fill="white"/>
<path d="M141.719 23.795C142.734 23.795 143.68 23.56 144.559 23.0902C145.439 22.6203 146.225 21.9877 146.924 21.1865C147.622 20.3883 148.216 19.4515 148.71 18.3731C149.204 17.2948 149.574 16.1502 149.818 14.9333C150.059 13.7163 150.168 12.5777 150.135 11.5205C150.104 10.4602 149.912 9.52945 149.559 8.73123C149.21 7.93301 148.686 7.29745 147.993 6.83057C147.3 6.36067 146.448 6.12572 145.433 6.12572C144.418 6.12572 143.472 6.36067 142.592 6.83057C141.713 7.30046 140.923 7.93301 140.228 8.73123C139.529 9.52945 138.926 10.4602 138.414 11.5205C137.905 12.5808 137.529 13.7194 137.285 14.9333C136.746 17.5388 136.869 19.6684 137.655 21.319C138.444 22.9667 139.797 23.795 141.719 23.795ZM157.632 14.9333C157.159 17.1713 156.334 19.1713 155.15 20.9365C153.969 22.7016 152.59 24.1986 151.017 25.4216C149.445 26.6445 147.746 27.5813 145.927 28.2259C144.107 28.8735 142.339 29.1958 140.625 29.1958C138.773 29.1958 137.068 28.8825 135.514 28.253C133.959 27.6234 132.658 26.7077 131.61 25.4999C130.559 24.295 129.83 22.801 129.423 21.0178C129.016 19.2346 129.053 17.2074 129.525 14.9363C130.05 12.4874 130.95 10.3638 132.221 8.56556C133.495 6.7643 134.941 5.28834 136.559 4.13469C138.179 2.98104 139.878 2.12559 141.655 1.56533C143.436 1.00205 145.077 0.721924 146.577 0.721924C148.677 0.721924 150.505 1.07133 152.071 1.77015C153.638 2.46897 154.909 3.44792 155.882 4.70399C156.858 5.96307 157.499 7.45709 157.804 9.18908C158.114 10.9211 158.057 12.8338 157.632 14.9333Z" fill="white"/>
<path d="M96.4913 28.0903C95.7623 28.3162 95.0545 28.503 94.3707 28.6446C92.6267 29.012 90.9339 29.1958 89.2892 29.1958C86.8765 29.1958 84.8945 28.759 83.3463 27.8855C81.798 27.012 80.5992 25.8854 79.7558 24.5029C78.9124 23.1233 78.4003 21.557 78.2196 19.8099C78.0358 18.0629 78.1262 16.2978 78.4907 14.5146C78.9545 12.3488 79.7256 10.409 80.798 8.69509C81.8703 6.98117 83.1565 5.53835 84.6565 4.36964C86.1566 3.19791 87.8072 2.29728 89.6085 1.66774C91.4068 1.03519 93.2532 0.721924 95.1418 0.721924C97.0636 0.721924 98.7444 1.10748 100.181 1.87558C101.136 2.38463 101.925 3.02622 102.549 3.80034C102.046 4.35157 101.618 4.93291 101.266 5.54739C100.654 6.61068 100.25 7.62577 100.049 8.58966C99.6902 10.2915 99.8077 11.7012 100.326 12.8278C100.814 13.882 101.504 14.7796 102.404 15.5236C102.293 15.7435 102.172 15.9634 102.049 16.1893H87.3675C87.997 14.9664 88.7561 13.9453 89.6477 13.1229C90.5393 12.3006 91.4399 11.891 92.3496 11.891H97.0154C97.2925 11.0867 97.4311 10.3186 97.422 9.58367C97.413 8.84871 97.2684 8.20411 96.9853 7.64385C96.7021 7.08359 96.2865 6.63779 95.7352 6.30645C95.187 5.97511 94.5093 5.80945 93.7081 5.80945C92.9731 5.80945 92.208 5.96909 91.4128 6.28235C90.6176 6.59562 89.8555 7.09563 89.1356 7.77638C88.4127 8.46014 87.753 9.33366 87.1536 10.397C86.5542 11.4633 86.1024 12.7494 85.8012 14.2495C85.1566 17.2918 85.3463 19.6412 86.3765 21.3039C87.4036 22.9636 89.0212 23.795 91.223 23.795C92.446 23.795 93.6749 23.6444 94.9069 23.3492C95.8045 23.1323 96.8196 22.81 97.9492 22.3793L95.7533 26.3041C95.5846 26.6083 95.5394 26.9578 95.6298 27.274C95.7202 27.5903 95.9401 27.8433 96.2352 27.9789C96.3226 28.015 96.4069 28.0512 96.4913 28.0903Z" fill="white"/>
<path fill-rule="evenodd" clip-rule="evenodd" d="M123.917 32.8193H97.2443C96.5153 32.8193 95.9219 33.4097 95.9219 34.1417C95.9219 34.8706 96.5153 35.464 97.2443 35.464H123.917C124.646 35.464 125.239 34.8706 125.239 34.1417C125.239 33.4097 124.646 32.8193 123.917 32.8193Z" fill="#F6B600"/>
<path fill-rule="evenodd" clip-rule="evenodd" d="M88.0421 35.4611H92.47C93.1989 35.4611 93.7923 34.8677 93.7923 34.1387C93.7923 33.4098 93.1989 32.8164 92.47 32.8164H88.0421C87.3132 32.8164 86.7198 33.4068 86.7198 34.1387C86.7228 34.8707 87.3132 35.4611 88.0421 35.4611Z" fill="#F6B600"/>
<path fill-rule="evenodd" clip-rule="evenodd" d="M131.104 38.5906H104.431C103.702 38.5906 103.109 39.184 103.109 39.9129C103.109 40.6419 103.702 41.2352 104.431 41.2352H131.104C131.833 41.2352 132.426 40.6419 132.426 39.9129C132.426 39.184 131.833 38.5906 131.104 38.5906Z" fill="#F6B600"/>
<path fill-rule="evenodd" clip-rule="evenodd" d="M95.2291 41.2323H99.657C100.386 41.2323 100.979 40.6389 100.979 39.91C100.979 39.181 100.389 38.5876 99.657 38.5876H95.2291C94.5002 38.5876 93.9068 39.181 93.9068 39.91C93.9068 40.6419 94.5002 41.2323 95.2291 41.2323Z" fill="#F6B600"/>
</svg>
